<?xml version="1.0" standalone="no"?><svg xmlns="http://www.w3.org/2000/svg" viewBox="0 0 1440 320"><path fill="#2D6CA2" fill-opacity="1" d="M0,160L24,186.7C48,213,96,267,144,293.3C192,320,240,320,288,304C336,288,384,256,432,213.3C480,171,528,117,576,122.7C624,128,672,192,720,197.3C768,203,816,149,864,133.3C912,117,960,139,1008,128C1056,117,1104,75,1152,80C1200,85,1248,139,1296,186.7C1344,235,1392,277,1416,298.7L1440,320L1440,0L1416,0C1392,0,1344,0,1296,0C1248,0,1200,0,1152,0C1104,0,1056,0,1008,0C960,0,912,0,864,0C816,0,768,0,720,0C672,0,624,0,576,0C528,0,480,0,432,0C384,0,336,0,288,0C240,0,192,0,144,0C96,0,48,0,24,0L0,0Z"></path></svg>