<?xml version="1.0" standalone="no"?><svg xmlns="http://www.w3.org/2000/svg" viewBox="0 0 1440 320"><path fill="#2D6CA2" fill-opacity="1" d="M0,320L24,277.3C48,235,96,149,144,117.3C192,85,240,107,288,117.3C336,128,384,128,432,160C480,192,528,256,576,240C624,224,672,128,720,117.3C768,107,816,181,864,181.3C912,181,960,107,1008,101.3C1056,96,1104,160,1152,202.7C1200,245,1248,267,1296,266.7C1344,267,1392,245,1416,234.7L1440,224L1440,320L1416,320C1392,320,1344,320,1296,320C1248,320,1200,320,1152,320C1104,320,1056,320,1008,320C960,320,912,320,864,320C816,320,768,320,720,320C672,320,624,320,576,320C528,320,480,320,432,320C384,320,336,320,288,320C240,320,192,320,144,320C96,320,48,320,24,320L0,320Z"></path></svg>