<?xml version="1.0" encoding="UTF-8"?>
<svg id="Layer_2" data-name="Layer 2" xmlns="http://www.w3.org/2000/svg" viewBox="0 0 500 500">
  <defs>
    <style>
      .cls-1 {
        fill: #ed2c23;
      }

      .cls-2 {
        fill: aqua;
      }

      .cls-3 {
        fill: #7133d6;
      }

      .cls-4 {
        fill: #f7941d;
      }

      .cls-5 {
        fill: #f465d1;
      }

      .cls-6 {
        fill: #2bb27a;
      }
    </style>
  </defs>
  <path class="cls-5" d="m315.63,116.54c-14.01-7.17-27.97-11.32-41.31-13.39-1.9-.29-3.09-2.19-2.55-4.04,2.24-7.67,2.25-13.85,2.25-13.85h-.2c.13-1,.2-2.02.2-3.05,0-13.26-10.75-24.02-24.02-24.02s-24.02,10.75-24.02,24.02c0,1.04.07,2.05.2,3.05h-.2s0,6.47,2.4,14.38c.56,1.84-.62,3.74-2.52,4.06-20.22,3.41-35.49,9.81-41.96,12.85-1.85.87-2.56,3.13-1.54,4.9l41,71.55c.38.67,1.36.64,1.7-.05l14.58-29.15c.6-1.2,1.78-1.99,3.11-2.11,15.7-1.42,48.4,7.15,48.4,7.15l25.95-47.49c.95-1.73.27-3.9-1.49-4.8Z"/>
  <path class="cls-3" d="m167.23,126.43c-13.22,8.55-23.79,18.56-32.25,29.08-1.2,1.5-3.44,1.58-4.77.19-5.52-5.78-10.87-8.87-10.87-8.87l-.1.17c-.8-.61-1.65-1.18-2.54-1.7-11.49-6.63-26.17-2.7-32.81,8.79-6.63,11.49-2.7,26.17,8.79,32.81.9.52,1.81.96,2.74,1.35l-.1.17s5.61,3.23,13.65,5.11c1.87.44,2.93,2.41,2.26,4.21-7.16,19.21-9.25,35.64-9.85,42.76-.17,2.04,1.43,3.78,3.48,3.79l82.46.27c.77,0,1.23-.86.81-1.5l-17.96-27.2c-.74-1.12-.84-2.54-.27-3.75,6.62-14.3,30.39-38.35,30.39-38.35l-28.15-46.21c-1.03-1.69-3.25-2.19-4.9-1.11Z"/>
  <path class="cls-2" d="m101.6,259.89c.79,15.72,4.18,29.89,9.06,42.47.69,1.79-.36,3.77-2.22,4.23-7.76,1.89-13.12,4.98-13.12,4.98l.1.17c-.93.39-1.85.84-2.74,1.35-11.49,6.63-15.42,21.32-8.79,32.81,6.63,11.49,21.32,15.42,32.81,8.79.9-.52,1.74-1.09,2.54-1.7l.1.17s5.6-3.24,11.25-9.27c1.31-1.4,3.55-1.33,4.78.15,13.06,15.8,26.24,25.83,32.1,29.91,1.68,1.17,3.99.65,5.02-1.12l41.46-71.28c.39-.67-.12-1.5-.89-1.45l-32.54,1.95c-1.34.08-2.61-.54-3.39-1.64-9.08-12.89-18.01-45.49-18.01-45.49l-54.1,1.27c-1.97.05-3.52,1.72-3.42,3.69Z"/>
  <path class="cls-6" d="m184.37,383.46c14.01,7.17,27.97,11.32,41.31,13.39,1.9.29,3.09,2.19,2.55,4.04-2.24,7.67-2.25,13.85-2.25,13.85h.2c-.13,1-.2,2.02-.2,3.05,0,13.26,10.75,24.02,24.02,24.02,13.26,0,24.02-10.75,24.02-24.02,0-1.04-.07-2.05-.2-3.05h.2s0-6.47-2.4-14.38c-.56-1.84.62-3.74,2.52-4.06,20.22-3.41,35.49-9.81,41.96-12.85,1.85-.87,2.56-3.13,1.54-4.9l-41-71.55c-.38-.67-1.36-.64-1.7.05l-14.58,29.15c-.6,1.2-1.78,1.99-3.11,2.11-15.7,1.42-48.4-7.15-48.4-7.15l-25.95,47.49c-.95,1.73-.27,3.9,1.49,4.8Z"/>
  <path class="cls-4" d="m332.77,373.57c13.22-8.55,23.79-18.56,32.25-29.08,1.2-1.5,3.44-1.58,4.77-.19,5.52,5.78,10.87,8.87,10.87,8.87l.1-.17c.8.61,1.65,1.18,2.54,1.7,11.49,6.63,26.17,2.7,32.81-8.79,6.63-11.49,2.7-26.17-8.79-32.81-.9-.52-1.81-.96-2.74-1.35l.1-.17s-5.61-3.23-13.65-5.11c-1.87-.44-2.93-2.41-2.26-4.21,7.16-19.21,9.25-35.64,9.85-42.76.17-2.04-1.43-3.78-3.48-3.79l-82.46-.27c-.77,0-1.23.86-.81,1.5l17.96,27.2c.74,1.12.84,2.54.27,3.75-6.62,14.3-30.39,38.35-30.39,38.35l28.15,46.21c1.03,1.69,3.25,2.19,4.9,1.11Z"/>
  <path class="cls-1" d="m398.4,240.11c-.79-15.72-4.18-29.89-9.06-42.47-.69-1.79.36-3.77,2.22-4.23,7.76-1.89,13.12-4.98,13.12-4.98l-.1-.17c.93-.39,1.85-.84,2.74-1.35,11.49-6.63,15.42-21.32,8.79-32.81-6.63-11.49-21.32-15.42-32.81-8.79-.9.52-1.74,1.09-2.54,1.7l-.1-.17s-5.6,3.24-11.25,9.27c-1.31,1.4-3.55,1.33-4.78-.15-13.06-15.8-26.24-25.83-32.1-29.91-1.68-1.17-3.99-.65-5.02,1.12l-41.46,71.28c-.39.67.12,1.5.89,1.45l32.54-1.95c1.34-.08,2.61.54,3.39,1.64,9.08,12.89,18.01,45.49,18.01,45.49l54.1-1.27c1.97-.05,3.52-1.72,3.42-3.69Z"/>
</svg>