<?xml version="1.0" encoding="UTF-8"?>
<svg id="Layer_2" data-name="Layer 2" xmlns="http://www.w3.org/2000/svg" viewBox="0 0 2000 1000">
  <defs>
    <style>
      .cls-1 {
        fill: #ed2c23;
      }

      .cls-2 {
        fill: aqua;
      }

      .cls-3 {
        fill: #7133d6;
      }

      .cls-4 {
        fill: #2d6ca2;
      }

      .cls-5 {
        fill: #f7941d;
      }

      .cls-6 {
        fill: #f465d1;
      }

      .cls-7 {
        fill: #2bb27a;
      }
    </style>
  </defs>
  <g>
    <path class="cls-4" d="m787.26,576.08c-10.89-12.32-16.34-31.68-16.34-58.07v-46.98c0-4.13-.28-6.88-.83-8.23-.56-1.35-2.11-2.58-4.65-3.7l-7.63-4.53.72-23.85h74.41l1.19,23.61-19.79,5.49v48.89c0,16.54,2.38,29.57,7.15,39.11,4.77,9.54,12.96,14.31,24.56,14.31,3.82,0,7.51-.55,11.09-1.67,3.58-1.11,6.64-2.62,9.18-4.53,1.59-3.66,2.7-8.54,3.34-14.67.63-6.12.95-14.35.95-24.68v-45.55c0-4.13-.32-6.88-.95-8.23-.64-1.35-2.31-2.58-5.01-3.7l-11.69-6.68,1.19-21.7h70.83l1.19,25.76-12.4,3.34v53.9c0,25.6-6.56,45.47-19.68,59.62-13.12,14.15-31.6,21.23-55.45,21.23s-40.51-6.16-51.39-18.48Z"/>
    <path class="cls-4" d="m937.62,568.56l14.79-4.29v-57.71c0-3.5-.24-5.76-.72-6.8-.48-1.03-1.75-2.18-3.82-3.46l-10.49-5.72.72-17.89,5.25-.95c20.83-4.13,35.85-6.36,45.07-6.68,1.27,3.34,2.3,7,3.1,10.97,9.7-4.45,17.61-7.51,23.73-9.18,6.12-1.67,11.88-2.5,17.29-2.5,25.28,0,37.92,15.11,37.92,45.31v46.74c0,3.34.24,5.57.72,6.68.48,1.11,1.83,2.31,4.05,3.58l11.45,6.68-.95,17.89h-65.82l-1.19-22.66,11.69-3.34v-45.07c0-7.15-.24-12.16-.72-15.02s-1.79-5.09-3.94-6.68c-2.15-1.59-5.92-2.39-11.33-2.39-5.72,0-12.96.88-21.7,2.62v57.71c0,3.34.24,5.57.72,6.68.48,1.11,1.75,2.31,3.82,3.58l11.69,6.68-.95,17.89h-69.16l-1.19-22.66Z"/>
    <path class="cls-4" d="m1097.17,569.52l16.69-5.01v-57.95c0-3.5-.28-5.76-.83-6.8-.56-1.03-1.95-2.18-4.17-3.46l-10.49-5.72,1.19-17.89c13.19-2.54,23.41-4.41,30.64-5.6,7.23-1.19,13.87-1.87,19.91-2.03,2.06,6.84,3.34,11.92,3.82,15.26v76.31c0,3.34.24,5.57.72,6.68.48,1.11,1.83,2.31,4.05,3.58l11.69,6.68-.96,17.89h-71.54l-.72-21.94Zm10.02-154.54l40.54-10.73,9.78,36.25-40.3,10.97-10.02-36.49Z"/>
    <path class="cls-4" d="m1190.17,458.62l-7.87-11.21.95-16.69h68.68l2.39,22.66-16.93,4.29,31.72,90.39,28.38-82.28c.48-1.27.72-2.38.72-3.34,0-2.06-.95-3.42-2.86-4.05l-16.46-6.68,1.67-20.99h62.24l1.43,20.27-10.49,13.36-51.99,127.83-41.02,3.58-50.56-137.13Z"/>
    <path class="cls-4" d="m1352.34,569.52l16.69-5.01v-57.95c0-3.5-.28-5.76-.83-6.8-.56-1.03-1.95-2.18-4.17-3.46l-10.49-5.72,1.19-17.89c13.2-2.54,23.41-4.41,30.65-5.6,7.23-1.19,13.87-1.87,19.91-2.03,2.06,6.84,3.34,11.92,3.82,15.26v76.31c0,3.34.24,5.57.72,6.68.48,1.11,1.83,2.31,4.05,3.58l11.69,6.68-.95,17.89h-71.55l-.72-21.94Zm10.02-154.54l40.54-10.73,9.78,36.25-40.3,10.97-10.02-36.49Z"/>
    <path class="cls-4" d="m1468,591.58c-8.75-1.83-16.85-4.25-24.33-7.27v-134.03c0-3.5-.24-5.76-.72-6.8-.48-1.03-1.75-2.18-3.82-3.46l-11.21-5.49,1.19-18.12c14.79-2.54,26-4.37,33.63-5.48,7.63-1.11,13.59-1.75,17.89-1.91,1.59,3.34,2.7,7.48,3.34,12.4v47.7c9.06-3.18,18.04-4.77,26.95-4.77,16.69,0,29.77,5.29,39.23,15.86,9.46,10.58,14.19,25.72,14.19,45.43,0,21.78-6,38.68-18.01,50.68-12.01,12.01-29.38,18.01-52.11,18.01-8.75,0-17.49-.92-26.23-2.74Zm51.27-30.41c1.27-4.29,2.3-9.3,3.1-15.02.79-5.72,1.19-11.29,1.19-16.69,0-24.48-8.19-36.73-24.56-36.73-4.14,0-9.14.72-15.02,2.15v65.58c4.13,2.07,10.33,3.1,18.6,3.1,7.47,0,13.04-.79,16.69-2.38Z"/>
    <path class="cls-4" d="m1598.57,577.39c-10.1-11.29-15.14-26.87-15.14-46.74,0-13.83,2.46-25.72,7.39-35.65,4.93-9.93,11.92-17.53,20.99-22.78,9.06-5.25,19.63-7.87,31.72-7.87,17.96,0,31.76,5.72,41.38,17.17,9.62,11.45,14.19,27.75,13.71,48.89l-72.5,13.35c2.22,6.68,5.37,11.57,9.42,14.67,4.05,3.1,9.42,4.65,16.1,4.65,4.61,0,10.09-.67,16.46-2.03,6.36-1.35,12.8-3.22,19.32-5.6l5.49,23.61c-5.88,4.45-13.51,8.11-22.89,10.97-9.38,2.86-18.84,4.29-28.38,4.29-18.6,0-32.95-5.64-43.05-16.93Zm60.93-67.01c-.32-6.04-2.03-10.45-5.13-13.24-3.1-2.78-7.43-4.17-13-4.17-4.61,0-8.98.64-13.12,1.91-3.34,7.79-4.85,16.22-4.53,25.28l35.77-9.78Z"/>
  </g>
  <g>
    <path class="cls-6" d="m575.31,344.39c-16.34-8.36-32.61-13.2-48.16-15.61-2.21-.34-3.6-2.56-2.97-4.71,2.62-8.94,2.62-16.15,2.62-16.15h-.23c.15-1.17.23-2.35.23-3.56,0-15.46-12.54-28-28-28s-28,12.54-28,28c0,1.21.09,2.39.23,3.56h-.23s0,7.55,2.8,16.77c.65,2.14-.73,4.36-2.93,4.73-23.57,3.97-41.38,11.43-48.92,14.98-2.16,1.01-2.98,3.65-1.8,5.72l47.8,83.42c.45.78,1.58.75,1.99-.06l17-33.99c.7-1.4,2.07-2.32,3.63-2.46,18.3-1.65,56.44,8.33,56.44,8.33l30.25-55.36c1.1-2.02.31-4.55-1.74-5.6Z"/>
    <path class="cls-3" d="m402.29,355.93c-15.41,9.97-27.74,21.64-37.6,33.9-1.4,1.75-4.02,1.84-5.56.22-6.43-6.73-12.68-10.34-12.68-10.34l-.12.2c-.94-.71-1.92-1.38-2.97-1.98-13.39-7.73-30.52-3.14-38.25,10.25-7.73,13.39-3.14,30.52,10.25,38.25,1.05.6,2.12,1.12,3.2,1.58l-.12.2s6.54,3.77,15.92,5.96c2.18.51,3.41,2.81,2.63,4.91-8.35,22.4-10.79,41.55-11.49,49.85-.2,2.37,1.67,4.41,4.05,4.41l96.15.31c.9,0,1.44-1,.94-1.75l-20.94-31.71c-.86-1.3-.98-2.96-.32-4.37,7.72-16.68,35.43-44.71,35.43-44.71l-32.82-53.88c-1.2-1.97-3.79-2.55-5.72-1.3Z"/>
    <path class="cls-2" d="m325.77,511.54c.93,18.33,4.88,34.84,10.56,49.52.81,2.09-.41,4.4-2.59,4.93-9.05,2.2-15.3,5.81-15.3,5.81l.12.2c-1.08.46-2.15.97-3.2,1.58-13.39,7.73-17.98,24.86-10.25,38.25,7.73,13.39,24.86,17.98,38.25,10.25,1.05-.6,2.03-1.27,2.97-1.98l.12.2s6.53-3.78,13.12-10.81c1.53-1.63,4.14-1.55,5.57.17,15.22,18.43,30.59,30.12,37.43,34.88,1.96,1.36,4.65.76,5.85-1.3l48.34-83.11c.45-.78-.14-1.74-1.04-1.69l-37.93,2.28c-1.56.09-3.05-.63-3.95-1.91-10.58-15.02-21-53.04-21-53.04l-63.07,1.48c-2.3.05-4.1,2-3.98,4.3Z"/>
    <path class="cls-7" d="m422.27,655.61c16.34,8.36,32.61,13.2,48.16,15.61,2.21.34,3.6,2.56,2.97,4.71-2.62,8.94-2.62,16.15-2.62,16.15h.23c-.15,1.17-.23,2.35-.23,3.56,0,15.46,12.54,28,28,28s28-12.54,28-28c0-1.21-.09-2.39-.23-3.56h.23s0-7.55-2.8-16.77c-.65-2.14.73-4.36,2.93-4.73,23.57-3.97,41.38-11.43,48.92-14.98,2.16-1.01,2.98-3.65,1.8-5.72l-47.8-83.42c-.45-.78-1.58-.75-1.99.06l-17,33.99c-.7,1.4-2.07,2.32-3.63,2.46-18.3,1.65-56.44-8.33-56.44-8.33l-30.25,55.36c-1.1,2.02-.31,4.55,1.74,5.6Z"/>
    <path class="cls-5" d="m595.29,644.07c15.41-9.97,27.74-21.64,37.6-33.9,1.4-1.75,4.02-1.84,5.56-.22,6.43,6.73,12.68,10.34,12.68,10.34l.12-.2c.94.71,1.92,1.38,2.97,1.98,13.39,7.73,30.52,3.14,38.25-10.25,7.73-13.39,3.14-30.52-10.25-38.25-1.05-.6-2.12-1.12-3.2-1.58l.12-.2s-6.54-3.77-15.92-5.96c-2.18-.51-3.41-2.81-2.63-4.91,8.35-22.4,10.79-41.55,11.49-49.85.2-2.37-1.67-4.41-4.05-4.41l-96.15-.31c-.9,0-1.44,1-.94,1.75l20.94,31.71c.86,1.3.98,2.96.32,4.37-7.72,16.68-35.43,44.71-35.43,44.71l32.82,53.88c1.2,1.97,3.79,2.55,5.72,1.3Z"/>
    <path class="cls-1" d="m671.81,488.46c-.93-18.33-4.88-34.84-10.56-49.52-.81-2.09.41-4.4,2.59-4.93,9.05-2.2,15.3-5.81,15.3-5.81l-.12-.2c1.08-.46,2.15-.97,3.2-1.58,13.39-7.73,17.98-24.86,10.25-38.25-7.73-13.39-24.86-17.98-38.25-10.25-1.05.6-2.03,1.27-2.97,1.98l-.12-.2s-6.53,3.78-13.12,10.81c-1.53,1.63-4.14,1.55-5.57-.17-15.22-18.43-30.59-30.12-37.43-34.88-1.96-1.36-4.65-.76-5.85,1.3l-48.34,83.11c-.45.78.14,1.74,1.04,1.69l37.93-2.28c1.56-.09,3.05.63,3.95,1.91,10.58,15.02,21,53.04,21,53.04l63.07-1.48c2.3-.05,4.1-2,3.98-4.3Z"/>
  </g>
</svg>